<svg xmlns="http://www.w3.org/2000/svg" width="316.666" height="215" viewBox="0 0 316.666 215"><g transform="translate(-1143 -3026.767)"><g transform="translate(1237.804 3026.767)"><path d="M446.577,2543.06l19.241,11v21.988l-19.241-11Z" transform="translate(-420.88 -2488.283)" fill="#fff"/><path d="M539.337,2490.266a122.806,122.806,0,0,0-121.872,0l-3.248,1.85v69.738a44.445,44.445,0,0,0,22.307,38.481l.111.064.04.024.04.015,19.241,10.991,19.249,11,3.192,1.835,3.2-1.835,19.249-11,19.241-10.991.04-.015.04-.024.111-.064a44.445,44.445,0,0,0,22.307-38.481v-69.738Zm-3.2,27.816-19.242,11v65.76h-.008l-19.241,11v-65.982l-19.249,10.99v65.99l-19.241-11v-22l-19.241-11v22l-.151-.088a37.887,37.887,0,0,1-19.1-32.907v-65.983l57.732,33,57.74-33Z" transform="translate(-414.217 -2474.081)" fill="#fff"/></g><g transform="translate(1143 3206.241)"><path d="M625.741,2574.554H613.053l-1.964,6.606h-6.751l11.4-33.8h7.181l11.541,33.8H627.7Zm-1.676-5.508-4.645-15.561-4.692,15.561Z" transform="translate(-604.338 -2546.495)" fill="#fff"/><path d="M654.992,2547.356h10.773c4.5.048,7.517.048,10.486,2.445a10.287,10.287,0,0,1,3.735,8.331,9.26,9.26,0,0,1-6.655,9.288l7.517,13.741h-7.23l-6.7-12.544h-5.65v12.544h-6.273Zm6.273,5.459V2563.4h2.2c2.156,0,2.969-.048,4.166-.1,1.388-.049,5.937-.289,5.937-5.218a4.838,4.838,0,0,0-2.681-4.549c-1.341-.671-2.969-.719-6.7-.719Z" transform="translate(-614.767 -2546.495)" fill="#fff"/><path d="M728.935,2571.505a17.884,17.884,0,0,1-2.922,5.074,14.925,14.925,0,0,1-11.683,5.219c-8.954,0-15.8-6.56-15.8-17.859,0-11.491,7.422-17.667,16.039-17.667,10.535,0,13.024,8.092,13.791,10.438l-6.321,1.675a8.6,8.6,0,0,0-1.245-3.352,7.14,7.14,0,0,0-6.081-2.969c-5.506,0-9.337,4.55-9.337,11.779,0,7.708,4.07,11.97,9.385,11.97a7.774,7.774,0,0,0,6.464-3.3,11.171,11.171,0,0,0,1.771-3.5Z" transform="translate(-623.731 -2546.272)" fill="#fff"/><path d="M777.1,2547.356v33.8h-6.368v-15.368H756.227v15.368h-6.32v-33.8h6.32v12.785h14.508v-12.785Z" transform="translate(-634.309 -2546.495)" fill="#fff"/><path d="M806.512,2553.007v7.948H822.79v5.46H806.512v9.048h19.009v5.7H800.287v-33.8h24.036v5.651Z" transform="translate(-644.681 -2546.495)" fill="#fff"/><path d="M866.7,2553.1h-9.336v28.06h-6.32V2553.1H841.9v-5.745h24.8Z" transform="translate(-653.248 -2546.495)" fill="#fff"/><path d="M898.917,2567.8v13.358h-6.223V2567.8l-11.3-20.446h7.133l7.326,14.03,7.421-14.03h7.039Z" transform="translate(-661.381 -2546.495)" fill="#fff"/><path d="M927.494,2547.356h11.4a21.979,21.979,0,0,1,5.794.526,10.579,10.579,0,0,1,7.947,10.726c0,4.5-2.108,9.337-8.14,10.678a24.553,24.553,0,0,1-5.7.431h-4.932v11.443h-6.368Zm6.368,5.412V2564.5h4.548a14.242,14.242,0,0,0,3.591-.286,5.487,5.487,0,0,0,4.166-5.747,5.587,5.587,0,0,0-1.675-4.308c-1.58-1.341-3.784-1.388-5.842-1.388Z" transform="translate(-670.872 -2546.495)" fill="#fff"/><path d="M977.556,2553.007v7.948h16.279v5.46H977.556v9.048h19.009v5.7H971.332v-33.8h24.035v5.651Z" transform="translate(-679.898 -2546.495)" fill="#fff"/></g></g></svg>