<svg xmlns="http://www.w3.org/2000/svg" width="34.191" height="40" viewBox="0 0 34.191 40"><path d="M448.406,181.292v18.572a11.837,11.837,0,0,1-5.942,10.249l-.029.018-.011.005-.011.005-5.125,2.928L432.162,216l-.852.488-.852-.488-5.126-2.929-5.125-2.928-.011-.005-.011-.005-.029-.018a11.837,11.837,0,0,1-5.942-10.249V181.292l.866-.494a32.7,32.7,0,0,1,32.458,0Z" transform="translate(-414.215 -176.487)" fill="#0f2759"/><path d="M437.715,212.707l-15.378-8.788v17.574a10.094,10.094,0,0,0,5.087,8.765l.04.023v-5.859l5.126,2.929v5.857l5.125,2.929V218.564l5.126-2.927v17.572l5.125-2.928,0,0V212.767l5.125-2.929v-5.918Zm-5.125,8.786-5.126-2.929v-5.857l5.126,2.93Z" transform="translate(-420.619 -198.117)" fill="#21c6be"/></svg>