<svg xmlns="http://www.w3.org/2000/svg" width="207.14" height="150" viewBox="0 0 207.14 150"><g transform="translate(-509.278 -961.306)"><g transform="translate(509.278 1074.334)"><path d="M523.278,1197.772h-8.3l-1.284,4.321h-4.416l7.454-22.112h4.7l7.548,22.112h-4.416Zm-1.1-3.6-3.038-10.179-3.069,10.179Z" transform="translate(-509.278 -1179.418)" fill="#fff"/><path d="M559.931,1179.981h7.047c2.944.032,4.917.032,6.859,1.6a6.729,6.729,0,0,1,2.443,5.449,6.058,6.058,0,0,1-4.353,6.076l4.917,8.988h-4.729l-4.385-8.205h-3.7v8.205h-4.1Zm4.1,3.571v6.921h1.441c1.409,0,1.942-.031,2.725-.062.909-.031,3.884-.189,3.884-3.413a3.165,3.165,0,0,0-1.754-2.976c-.877-.439-1.942-.47-4.385-.47Z" transform="translate(-533.619 -1179.418)" fill="#fff"/><path d="M623.358,1195.4a11.668,11.668,0,0,1-1.911,3.319,9.766,9.766,0,0,1-7.642,3.414c-5.857,0-10.336-4.292-10.336-11.683,0-7.517,4.855-11.557,10.492-11.557,6.891,0,8.519,5.293,9.02,6.828l-4.134,1.1a5.6,5.6,0,0,0-.815-2.193,4.67,4.67,0,0,0-3.977-1.942c-3.6,0-6.108,2.976-6.108,7.705,0,5.043,2.662,7.83,6.139,7.83a5.087,5.087,0,0,0,4.229-2.16,7.3,7.3,0,0,0,1.158-2.287Z" transform="translate(-554.541 -1178.897)" fill="#fff"/><path d="M672.636,1179.981v22.112h-4.165V1192.04H658.98v10.053h-4.134v-22.112h4.134v8.363h9.491v-8.363Z" transform="translate(-579.23 -1179.418)" fill="#fff"/><path d="M709.3,1183.677v5.2h10.649v3.571H709.3v5.919h12.434v3.727H705.226v-22.112h15.723v3.7Z" transform="translate(-603.44 -1179.418)" fill="#fff"/><path d="M763.06,1183.74h-6.107v18.353h-4.134V1183.74h-5.983v-3.759H763.06Z" transform="translate(-623.436 -1179.418)" fill="#fff"/><path d="M797.8,1193.355v8.738h-4.072v-8.738l-7.391-13.374H791l4.792,9.177,4.854-9.177h4.6Z" transform="translate(-642.416 -1179.418)" fill="#fff"/><path d="M832.433,1179.981h7.454a14.347,14.347,0,0,1,3.79.345,6.917,6.917,0,0,1,5.2,7.016c0,2.944-1.379,6.107-5.324,6.984a16.081,16.081,0,0,1-3.728.282H836.6v7.485h-4.166Zm4.166,3.54v7.673h2.975a9.328,9.328,0,0,0,2.349-.187,3.589,3.589,0,0,0,2.724-3.76,3.658,3.658,0,0,0-1.1-2.818,5.73,5.73,0,0,0-3.822-.908Z" transform="translate(-664.57 -1179.418)" fill="#fff"/><path d="M880.342,1183.677v5.2h10.648v3.571H880.342v5.919h12.434v3.727H876.271v-22.112h15.722v3.7Z" transform="translate(-685.636 -1179.418)" fill="#fff"/></g><g transform="translate(570.865 961.306)"><path d="M660.2,1030.286l12.586,7.194v14.384l-12.586-7.194Z" transform="translate(-643.389 -994.454)" fill="#fff"/><path d="M709.679,971.892a80.325,80.325,0,0,0-79.715,0l-2.125,1.21v45.618a29.06,29.06,0,0,0,14.591,25.167l27.391,15.656,27.4-15.656a29.06,29.06,0,0,0,14.591-25.167V973.1Zm-2.088,18.2L695,997.283v43.011l-.005.005-12.586,7.189v-43.156l-12.592,7.189v43.161l-12.586-7.194V1033.1l-12.586-7.194V1040.3l-.1-.057a24.784,24.784,0,0,1-12.493-21.526V975.555l37.765,21.583,37.769-21.583Z" transform="translate(-627.839 -961.306)" fill="#fff"/></g><g transform="translate(533.02 1106.025)"><g transform="translate(0)"><path d="M555.773,1243.563a1.68,1.68,0,0,0,1.559.761,1.433,1.433,0,0,0,.541-.085.6.6,0,0,0,.427-.577.511.511,0,0,0-.378-.5,3.618,3.618,0,0,0-.583-.157l-.605-.128a4.54,4.54,0,0,1-.634-.178,1.28,1.28,0,0,1-.847-1.23c0-.954.8-1.566,1.986-1.566a2.352,2.352,0,0,1,2.022,1.018l-.769.577a1.46,1.46,0,0,0-1.3-.748c-.505,0-.946.228-.946.612,0,.427.47.513.925.6l.519.114c.676.142,1.63.42,1.63,1.5,0,1.153-1.067,1.615-2.135,1.615a3.377,3.377,0,0,1-.9-.114,2.266,2.266,0,0,1-1.3-.954Z" transform="translate(-554.983 -1239.905)" fill="#fff"/><path d="M571.741,1240.151v5.026h-.918l.085-4.129-1.082,4.129h-.847l-1.089-4.129.092,4.129h-.918v-5.026h1.367l.982,3.73.961-3.73Z" transform="translate(-560.789 -1240.023)" fill="#fff"/><path d="M582.066,1244.194h-1.886l-.292.982h-1l1.694-5.026h1.068l1.715,5.026h-1Zm-.249-.819-.69-2.314-.7,2.314Z" transform="translate(-566.469 -1240.023)" fill="#fff"/><path d="M590.39,1240.151h1.6a2.249,2.249,0,0,1,1.559.363,1.533,1.533,0,0,1,.555,1.239,1.377,1.377,0,0,1-.989,1.381l1.118,2.043h-1.075l-1-1.865h-.839v1.865h-.932Zm.932.811v1.574h.327c.32,0,.442-.007.619-.014a.784.784,0,0,0,.883-.777.719.719,0,0,0-.4-.676,2.31,2.31,0,0,0-1-.107Z" transform="translate(-571.998 -1240.023)" fill="#fff"/><path d="M603.774,1241.005h-1.388v4.172h-.94v-4.172h-1.36v-.854h3.688Z" transform="translate(-576.657 -1240.023)" fill="#fff"/><path d="M619.5,1243.656a2.669,2.669,0,0,1-.434.755,2.221,2.221,0,0,1-1.737.776,2.657,2.657,0,0,1,.036-5.281,2.011,2.011,0,0,1,2.05,1.551l-.94.249a1.282,1.282,0,0,0-.185-.5,1.06,1.06,0,0,0-.9-.441c-.819,0-1.388.676-1.388,1.751,0,1.146.6,1.78,1.395,1.78a1.156,1.156,0,0,0,.962-.492,1.643,1.643,0,0,0,.263-.519Z" transform="translate(-583.812 -1239.905)" fill="#fff"/><path d="M628.879,1245.186a2.134,2.134,0,0,1-1.73-.769,2.768,2.768,0,0,1-.669-1.864,2.467,2.467,0,0,1,2.413-2.648,2.651,2.651,0,0,1-.015,5.281Zm.007-4.42c-.861,0-1.437.7-1.437,1.744,0,1.132.626,1.808,1.459,1.808a1.508,1.508,0,0,0,1.452-1.666C630.381,1241.67,629.876,1240.766,628.886,1240.766Z" transform="translate(-589.341 -1239.905)" fill="#fff"/><path d="M642.1,1240.151h.926v5.026h-.819l-2.2-3.524.057,3.524h-.918v-5.026H640l2.221,3.552Z" transform="translate(-595.429 -1240.023)" fill="#fff"/><path d="M653.37,1241.005h-1.388v4.172h-.94v-4.172h-1.36v-.854h3.688Z" transform="translate(-600.49 -1240.023)" fill="#fff"/><path d="M659.819,1240.151h1.6a2.249,2.249,0,0,1,1.559.363,1.532,1.532,0,0,1,.555,1.239,1.377,1.377,0,0,1-.99,1.381l1.118,2.043h-1.075l-1-1.865h-.84v1.865h-.932Zm.932.811v1.574h.327c.32,0,.441-.007.62-.014a.784.784,0,0,0,.883-.777.72.72,0,0,0-.4-.676,2.31,2.31,0,0,0-1-.107Z" transform="translate(-605.362 -1240.023)" fill="#fff"/><path d="M672.478,1244.194h-1.886l-.291.982h-1l1.693-5.026h1.069l1.715,5.026h-1Zm-.249-.819-.69-2.314-.7,2.314Z" transform="translate(-609.916 -1240.023)" fill="#fff"/><path d="M684.448,1243.656a2.638,2.638,0,0,1-.434.755,2.22,2.22,0,0,1-1.737.776,2.657,2.657,0,0,1,.035-5.281,2.01,2.01,0,0,1,2.05,1.551l-.939.249a1.287,1.287,0,0,0-.185-.5,1.061,1.061,0,0,0-.9-.441c-.819,0-1.388.676-1.388,1.751,0,1.146.605,1.78,1.4,1.78a1.155,1.155,0,0,0,.961-.492,1.646,1.646,0,0,0,.263-.519Z" transform="translate(-615.026 -1239.905)" fill="#fff"/><path d="M694.22,1241.005h-1.388v4.172h-.939v-4.172h-1.36v-.854h3.688Z" transform="translate(-620.121 -1240.023)" fill="#fff"/><path d="M700.664,1243.563a1.677,1.677,0,0,0,1.558.761,1.431,1.431,0,0,0,.541-.085.6.6,0,0,0,.427-.577.511.511,0,0,0-.378-.5,3.617,3.617,0,0,0-.583-.157l-.606-.128a4.566,4.566,0,0,1-.634-.178,1.281,1.281,0,0,1-.846-1.23c0-.954.8-1.566,1.985-1.566a2.35,2.35,0,0,1,2.022,1.018l-.768.577a1.46,1.46,0,0,0-1.3-.748c-.505,0-.946.228-.946.612,0,.427.469.513.925.6l.519.114c.676.142,1.63.42,1.63,1.5,0,1.153-1.067,1.615-2.135,1.615a3.379,3.379,0,0,1-.9-.114,2.266,2.266,0,0,1-1.3-.954Z" transform="translate(-624.61 -1239.905)" fill="#fff"/><path d="M720.84,1240.151v3.168a1.675,1.675,0,0,1-.541,1.494,2.292,2.292,0,0,1-1.517.491,2.675,2.675,0,0,1-.89-.135,1.587,1.587,0,0,1-1.032-1.018,3.584,3.584,0,0,1-.071-1v-3h.939v3.089a1.723,1.723,0,0,0,.065.612,1.01,1.01,0,0,0,1.018.541,1.226,1.226,0,0,0,.8-.249c.277-.248.277-.533.277-.953v-3.04Z" transform="translate(-632.739 -1240.023)" fill="#fff"/><path d="M731.974,1240.151h.926v5.026h-.819l-2.2-3.524.057,3.524h-.918v-5.026h.848l2.22,3.552Z" transform="translate(-638.616 -1240.023)" fill="#fff"/><path d="M740.785,1240.151h1.8a2.4,2.4,0,0,1,1.488.392,2.592,2.592,0,0,1,.968,2.164,2.4,2.4,0,0,1-1.032,2.163,3.089,3.089,0,0,1-1.616.307h-1.609Zm.94.854v3.324h.4a3.356,3.356,0,0,0,1.174-.114c.363-.142.747-.455.747-1.5a1.609,1.609,0,0,0-.769-1.573,2.248,2.248,0,0,0-1.053-.136Z" transform="translate(-644.27 -1240.023)" fill="#fff"/><path d="M753.148,1240.991v1.181h2.42v.813h-2.42v1.344h2.826v.848h-3.751v-5.026H755.8v.84Z" transform="translate(-649.766 -1240.023)" fill="#fff"/><path d="M763.042,1240.151h1.6a2.25,2.25,0,0,1,1.559.363,1.533,1.533,0,0,1,.555,1.239,1.377,1.377,0,0,1-.989,1.381l1.117,2.043h-1.075l-1-1.865h-.84v1.865h-.933Zm.933.811v1.574h.327c.321,0,.442-.007.62-.014a.784.784,0,0,0,.883-.777.719.719,0,0,0-.4-.676,2.307,2.307,0,0,0-1-.107Z" transform="translate(-654.965 -1240.023)" fill="#fff"/><path d="M782.807,1243.656a2.648,2.648,0,0,1-.435.755,2.218,2.218,0,0,1-1.736.776,2.656,2.656,0,0,1,.035-5.281,2.011,2.011,0,0,1,2.05,1.551l-.94.249a1.271,1.271,0,0,0-.185-.5,1.059,1.059,0,0,0-.9-.441c-.818,0-1.389.676-1.389,1.751,0,1.146.606,1.78,1.4,1.78a1.156,1.156,0,0,0,.962-.492,1.655,1.655,0,0,0,.263-.519Z" transform="translate(-662.291 -1239.905)" fill="#fff"/><path d="M792.191,1245.186a2.134,2.134,0,0,1-1.73-.769,2.768,2.768,0,0,1-.669-1.864,2.467,2.467,0,0,1,2.413-2.648,2.651,2.651,0,0,1-.015,5.281Zm.007-4.42c-.862,0-1.438.7-1.438,1.744,0,1.132.627,1.808,1.46,1.808a1.509,1.509,0,0,0,1.452-1.666C793.693,1241.67,793.188,1240.766,792.2,1240.766Z" transform="translate(-667.82 -1239.905)" fill="#fff"/><path d="M805.416,1240.151h.926v5.026h-.819l-2.2-3.524.057,3.524h-.918v-5.026h.848l2.22,3.552Z" transform="translate(-673.909 -1240.023)" fill="#fff"/><path d="M816.683,1241.005h-1.389v4.172h-.939v-4.172h-1.359v-.854h3.688Z" transform="translate(-678.97 -1240.023)" fill="#fff"/><path d="M823.13,1240.151h1.6a2.25,2.25,0,0,1,1.559.363,1.533,1.533,0,0,1,.555,1.239,1.377,1.377,0,0,1-.989,1.381l1.117,2.043H825.9l-1-1.865h-.84v1.865h-.933Zm.933.811v1.574h.327c.321,0,.442-.007.62-.014a.784.784,0,0,0,.883-.777.72.72,0,0,0-.4-.676,2.307,2.307,0,0,0-1-.107Z" transform="translate(-683.841 -1240.023)" fill="#fff"/><path d="M835.57,1245.186a2.133,2.133,0,0,1-1.73-.769,2.768,2.768,0,0,1-.669-1.864,2.467,2.467,0,0,1,2.413-2.648,2.651,2.651,0,0,1-.014,5.281Zm.006-4.42c-.861,0-1.437.7-1.437,1.744,0,1.132.626,1.808,1.459,1.808a1.508,1.508,0,0,0,1.452-1.666C837.072,1241.67,836.566,1240.766,835.576,1240.766Z" transform="translate(-688.666 -1239.905)" fill="#fff"/><path d="M846.785,1244.316h1.994v.854h-2.94v-5.033h.946Z" transform="translate(-694.753 -1240.016)" fill="#fff"/></g></g></g></svg>