<svg xmlns="http://www.w3.org/2000/svg" width="20" height="19.506" viewBox="0 0 20 19.506"><path d="M146.319,383.44a10,10,0,0,0-3.16,19.489c.5.091.683-.217.683-.482,0-.238-.009-.866-.014-1.7-2.782.6-3.368-1.34-3.368-1.34a2.649,2.649,0,0,0-1.111-1.463c-.908-.621.069-.608.069-.608a2.1,2.1,0,0,1,1.532,1.03,2.129,2.129,0,0,0,2.91.831,2.138,2.138,0,0,1,.635-1.337c-2.22-.252-4.555-1.11-4.555-4.942a3.866,3.866,0,0,1,1.029-2.683,3.593,3.593,0,0,1,.1-2.646s.839-.269,2.75,1.025a9.484,9.484,0,0,1,5.007,0c1.909-1.294,2.747-1.025,2.747-1.025a3.594,3.594,0,0,1,.1,2.646,3.859,3.859,0,0,1,1.028,2.683c0,3.842-2.338,4.687-4.566,4.934a2.388,2.388,0,0,1,.679,1.852c0,1.337-.012,2.416-.012,2.743,0,.267.18.578.688.481a10,10,0,0,0-3.168-19.488Z" transform="translate(-136.32 -383.44)" fill="#54544a" fill-rule="evenodd"/></svg>