<svg xmlns="http://www.w3.org/2000/svg" width="128.368" height="150.181" viewBox="0 0 128.368 150.181"><g transform="translate(0 0)"><path d="M446.577,2543.06l19.241,11v21.988l-19.241-11Z" transform="translate(-420.88 -2488.283)" fill="#fff"/><path d="M539.337,2490.266a122.806,122.806,0,0,0-121.872,0l-3.248,1.85v69.738a44.445,44.445,0,0,0,22.307,38.481l.111.064.04.024.04.015,19.241,10.991,19.249,11,3.192,1.835,3.2-1.835,19.249-11,19.241-10.991.04-.015.04-.024.111-.064a44.445,44.445,0,0,0,22.307-38.481v-69.738Zm-3.2,27.816-19.242,11v65.76h-.008l-19.241,11v-65.982l-19.249,10.99v65.99l-19.241-11v-22l-19.241-11v22l-.151-.088a37.887,37.887,0,0,1-19.1-32.907v-65.983l57.732,33,57.74-33Z" transform="translate(-414.217 -2474.081)" fill="#fff"/></g></svg>