<svg xmlns="http://www.w3.org/2000/svg" width="359.26" height="34.352" viewBox="0 0 359.26 34.352"><path d="M141.7,0h16.719c.283,0,.487,0,.611,0a4.11,4.11,0,0,1,.9.116,1.533,1.533,0,0,1,1.217,1.159,5.966,5.966,0,0,1,.13,1.461q.009.232,0,2.5h-1.937q0-.887,0-1.244a7.775,7.775,0,0,0-.072-1.567c-.126-.312-.281-.487-.849-.5q-.947-.019-14.682,0V16.018H156.43v1.931H143.737V33.773H141.7Zm19.845,21.566a12.27,12.27,0,1,1,24.536,0,12.278,12.278,0,1,1-24.536,0Zm2.084,0c0,6.126,4.547,10.806,10.184,10.806S184,27.693,184,21.567a10.189,10.189,0,1,0-20.368,0ZM190,24.944V9.65h1.99V24.221c0,4.2.521,8.153,5.825,8.153,5.921,0,9.71-5.307,9.71-10.951V9.65h1.99V33.773h-1.99V29.527a10.265,10.265,0,0,1,.19-1.978h-.1a10.781,10.781,0,0,1-9.8,6.8C191.991,34.352,190,31.071,190,24.944Zm23.662,8.01V9.65h1.99V13.9a10.247,10.247,0,0,1-.19,1.978h.094a10.932,10.932,0,0,1,10.042-6.8c6.158,0,7.815,3.714,7.815,9.408V33.773h-1.99V19.2c0-4.2-.521-8.153-5.825-8.153-5.4,0-9.946,4.534-9.946,10.711V33.773h-1.99Zm23.814-11.242c0-7.67,4.4-12.64,10.609-12.64,5.969,0,8.194,5.452,8.194,5.452h.094a10.338,10.338,0,0,1-.189-1.978V0h1.99V33.773h-1.99v-3.04a7.983,7.983,0,0,1,.189-1.834h-.094a9.08,9.08,0,0,1-8.574,5.452C241.361,34.352,237.478,29.189,237.478,21.712Zm2.084,0c0,6.512,3.409,10.662,8.242,10.662,4.357,0,8.43-3.136,8.43-10.711,0-5.355-2.7-10.613-8.242-10.613C243.351,11.05,239.562,14.957,239.562,21.712Zm22.487,5.645c0-8.2,10.467-8.3,14.682-8.3H278.3v-.82c0-5.355-2.7-7.188-6.49-7.188a12.406,12.406,0,0,0-6.11,1.834l-1.184-1.64A14.293,14.293,0,0,1,271.9,9.072c5.448,0,8.383,3.087,8.383,9.117V33.773H278.3V30.589a11.259,11.259,0,0,1,.189-2.171h-.094c.047,0-2.131,5.934-8.289,5.934C266.265,34.352,262.049,32.18,262.049,27.357Zm2.084-.146c0,2.558,2.037,5.259,6.063,5.259,5.163,0,8.1-5.45,8.1-10.227v-1.3H276.78C272.754,20.94,264.133,20.94,264.133,27.211Zm21.858-2.276V11.524h-3.126V9.69h3.126V2.84h1.99V9.69h6.2v1.834h-6.2V24.79c0,6.465,4.907,7.033,5.92,7.038.49,0,1,0,1.722,0a1.836,1.836,0,0,0,.889-.115.627.627,0,0,0,.333-.366,5.314,5.314,0,0,0,.089-1.481v-1.39h1.939q-.006.618,0,1.191c0,.293,0,.608,0,.925A9.812,9.812,0,0,1,298.8,32.1a1.861,1.861,0,0,1-.362.933,2.5,2.5,0,0,1-2,.684q-1.572,0-2.541,0C289.353,33.42,285.991,30.242,285.991,24.935ZM305.1,3.522h-.806V.948h2.369V3.522H305.1Zm-.617,30.251V9.65h1.99V33.773h-1.99Zm6.242-12.206a12.27,12.27,0,1,1,24.536,0,12.278,12.278,0,1,1-24.536,0Zm2.084,0c0,6.126,4.547,10.806,10.184,10.806s10.184-4.68,10.184-10.806a10.189,10.189,0,1,0-20.368,0Zm26.7,12.206V9.65h1.99V13.9a10.246,10.246,0,0,1-.19,1.978h.094a10.932,10.932,0,0,1,10.042-6.8c6.158,0,7.815,3.714,7.815,9.408V33.773h-1.99V19.2c0-4.2-.521-8.153-5.825-8.153-5.4,0-9.946,4.534-9.946,10.711V33.773h-1.99ZM110.6,34.352a11.181,11.181,0,0,1-8.979-3.993l1.464-1.44a9.643,9.643,0,0,0,7.563,3.53c3.123,0,6-1.486,6-4.366,0-5.851-14.053-4.55-14.053-12.026,0-3.995,3.512-6.037,8.343-6.037,2.1,0,6.88.882,6.88,3.948V15.73h-2.05V14.617c0-1.951-3.024-2.694-4.732-2.694-3.953,0-6.295,1.347-6.295,3.993,0,5.944,14.053,4.5,14.053,12.166C118.8,31.8,115.237,34.352,110.6,34.352Zm-98.021,0V3.312H3.027c-.71,0-1.041.282-1.041,1.035v2.3H0V3.97C0,2.043.615,1.431,2.553,1.431H24.642c1.938,0,2.553.611,2.553,2.539V6.651H25.208v-2.3c0-.753-.331-1.035-1.041-1.035H14.614V34.352Zm14.614-12.12c0,7.384,5.244,12.12,11.566,12.12a12.017,12.017,0,0,0,7.978-3.2l-1.031-1.625a10,10,0,0,1-6.948,2.926c-5.2,0-9.594-3.855-9.594-10.587H47.143s.09-.743.09-1.254c0-5.619-3.049-10.587-9.145-10.587C32.351,10.019,27.195,14.385,27.195,22.231ZM29.3,20.05c.807-5.433,4.617-8.22,8.741-8.22,3.721,0,6.993,2.555,7.218,8.22Zm22.225,14.3V32.794L65.984,15.344c.859-1.053,1.861-2.107,1.861-2.107v-.092s-.859.092-2.433.092H54.676a.916.916,0,0,0-1.049,1.008v1.969H51.67V14.107c0-1.878.812-2.657,2.767-2.657H70.564v1.557L56.06,30.458c-.859,1.053-1.909,2.107-1.909,2.107v.092s.907-.092,2.482-.092H68.56a.916.916,0,0,0,1.049-1.008V29.588h1.957V31.7c0,1.878-.812,2.657-2.767,2.657Zm22.9-12.305c0,6.919,5.128,12.305,11.451,12.305s11.451-5.386,11.451-12.305c0-6.78-5.128-12.027-11.451-12.027S74.428,15.266,74.428,22.047Zm1.945,0c0-5.758,4.244-10.124,9.505-10.124s9.505,4.366,9.505,10.124c0,5.9-4.244,10.4-9.505,10.4S76.373,27.944,76.373,22.047Z" fill="#05f" fill-rule="evenodd"/></svg>