<svg xmlns="http://www.w3.org/2000/svg" width="276" height="56.122" viewBox="0 0 276 56.122"><path d="M63.884,45.9A17.866,17.866,0,1,1,81.627,26.8v.37H91.853v-.431A27.992,27.992,0,0,0,63.884,0c-.678,0-1.355,0-2.033.062H0V9.241H17.865v46.2h9.98V9.241H43.124A28.029,28.029,0,0,0,63.884,56.122H65.3V45.9Z" fill="#2c7df7"/><path d="M125.352,59.6,120.3,65.945,134.1,77.4l5.052-6.222Z" transform="translate(-46.189 -22.883)" fill="#2c7df7"/><path d="M197.057,58.2a9.2,9.2,0,0,1-7.269-2.957,12.12,12.12,0,0,1-2.649-8.193V25.984H180.3V23.4h6.838V12h2.834V23.4h12.567v2.587H189.972V46.5q0,4.62,1.848,6.838c1.232,1.479,3.08,2.218,5.606,2.218a10.7,10.7,0,0,0,2.4-.308,19.016,19.016,0,0,0,2.649-.862l.616,2.526a14.542,14.542,0,0,1-6.037,1.294Zm39.858-7.269A10.345,10.345,0,0,1,232.6,56.6c-1.91,1.17-4.62,1.725-8.193,1.725-4.066,0-7.269-1.109-9.487-3.265s-3.388-5.421-3.388-9.734V36.088c0-4.436,1.17-7.7,3.573-9.918s5.483-3.265,9.364-3.265a13.037,13.037,0,0,1,9.3,3.327c2.341,2.218,3.511,5.606,3.511,10.226v4.436H214.429v4.436c0,3.635.8,6.284,2.464,7.947s4.128,2.464,7.516,2.464c3.019,0,5.175-.431,6.53-1.355a9.444,9.444,0,0,0,3.2-4.374ZM214.429,36.088v2.4h19.96V36.58c0-3.82-.862-6.653-2.526-8.44s-4.189-2.649-7.516-2.649-5.791.862-7.454,2.587c-1.6,1.725-2.464,4.374-2.464,8.009Zm57.6,21.623H248.62V55.124l20.206-29.139H248.62V23.4h23.41v2.587L251.762,55.124H272.03v2.587Zm24.211.554c-4.128,0-7.331-1.109-9.549-3.327s-3.327-5.421-3.327-9.61V36.088q0-6.376,3.327-9.8c2.218-2.279,5.421-3.388,9.549-3.388s7.269,1.109,9.487,3.388,3.327,5.544,3.327,9.8v9.241q0,6.284-3.327,9.61C303.572,57.157,300.368,58.265,296.241,58.265Zm0-2.526c3.45,0,5.976-.862,7.577-2.526s2.4-4.312,2.4-7.885V36.088c0-3.635-.8-6.284-2.4-8.009s-4.128-2.587-7.577-2.587-5.976.862-7.577,2.587-2.4,4.374-2.4,8.009v9.241c0,3.573.8,6.161,2.4,7.885C290.265,54.877,292.791,55.74,296.241,55.74Zm36.9,2.526a27.162,27.162,0,0,1-8.009-1.232,21.93,21.93,0,0,1-7.085-3.82l1.479-2.341a21.755,21.755,0,0,0,6.345,3.635,22.151,22.151,0,0,0,7.208,1.232,11.364,11.364,0,0,0,6.777-1.787,5.646,5.646,0,0,0,2.464-4.867,5.016,5.016,0,0,0-2.218-4.5c-1.479-.986-4.312-1.848-8.5-2.649-4.374-.8-7.577-1.971-9.487-3.45a7.308,7.308,0,0,1-2.9-6.1,8.688,8.688,0,0,1,3.019-6.9,11.693,11.693,0,0,1,7.885-2.587,20.022,20.022,0,0,1,7.085,1.294,24.385,24.385,0,0,1,6.284,3.573l-1.355,2.218a24.662,24.662,0,0,0-5.668-3.265,16.236,16.236,0,0,0-6.345-1.294,9.023,9.023,0,0,0-5.914,1.725,5.67,5.67,0,0,0-2.156,4.682,5.533,5.533,0,0,0,2.218,4.867q2.218,1.571,8.5,2.587c4.436.739,7.577,1.848,9.549,3.327a7.26,7.26,0,0,1,2.9,6.161,8.353,8.353,0,0,1-3.327,6.9c-2.156,1.725-5.113,2.587-8.748,2.587Z" transform="translate(-69.226 -4.607)"/></svg>