<svg xmlns="http://www.w3.org/2000/svg" width="122.001" height="54.649" viewBox="0 0 122.001 54.649"><g transform="translate(-198.155 -449.084)"><g transform="translate(248.823 466.525)"><path d="M490.807,521.815a6.715,6.715,0,0,1-5.391-2.4l.879-.864a5.792,5.792,0,0,0,4.541,2.119c1.875,0,3.6-.892,3.6-2.621,0-3.513-8.438-2.733-8.438-7.222,0-2.4,2.11-3.625,5.01-3.625,1.26,0,4.131.53,4.131,2.37v1.06h-1.231v-.669c0-1.171-1.816-1.617-2.842-1.617-2.373,0-3.779.808-3.779,2.4,0,3.569,8.438,2.7,8.438,7.305C495.729,520.281,493.591,521.815,490.807,521.815Z" transform="translate(-424.396 -502.048)" fill="#fff" fill-rule="evenodd"/><path d="M336.026,513.709V495.071H330.29c-.426,0-.625.17-.625.621v1.384h-1.193v-1.61c0-1.158.369-1.525,1.533-1.525h13.262c1.165,0,1.533.367,1.533,1.525v1.61h-1.193v-1.384c0-.452-.2-.621-.624-.621h-5.737v18.638Z" transform="translate(-328.472 -493.942)" fill="#fff" fill-rule="evenodd"/><g transform="translate(16.329 5.156)"><path d="M382.5,513.561c0-3.374-1.83-6.357-5.491-6.357-3.446,0-6.541,2.621-6.541,7.333a6.89,6.89,0,0,0,6.945,7.278,7.217,7.217,0,0,0,4.791-1.924l-.619-.976a6.007,6.007,0,0,1-4.172,1.757c-3.122,0-5.76-2.314-5.76-6.357h10.794S382.5,513.868,382.5,513.561Zm-10.767-.334c.484-3.262,2.773-4.935,5.249-4.935,2.234,0,4.2,1.534,4.334,4.935Z" transform="translate(-370.471 -507.204)" fill="#fff"/></g><path d="M408.049,523.166v-.935l8.68-10.479c.516-.632,1.117-1.265,1.117-1.265v-.055s-.516.055-1.461.055H409.94a.55.55,0,0,0-.63.605v1.182h-1.175V511.01c0-1.128.487-1.6,1.662-1.6h9.683v.935l-8.709,10.478c-.516.633-1.146,1.265-1.146,1.265v.055s.544-.055,1.49-.055h7.162a.55.55,0,0,0,.63-.6v-1.183h1.175v1.265c0,1.128-.487,1.6-1.662,1.6Z" transform="translate(-377.109 -503.399)" fill="#fff" fill-rule="evenodd"/><g transform="translate(44.691 5.156)"><path d="M450.293,507.2a7,7,0,0,0-6.876,7.222,6.893,6.893,0,1,0,13.751,0A7,7,0,0,0,450.293,507.2Zm0,13.467a5.933,5.933,0,0,1-5.708-6.246,5.719,5.719,0,1,1,11.415,0A5.933,5.933,0,0,1,450.293,520.671Z" transform="translate(-443.417 -507.204)" fill="#fff"/></g></g><path d="M224.2,503.733q-5.886,0-8.577-2.817a8.671,8.671,0,0,1-2.691-6.071,3.951,3.951,0,0,1,.469-2,3.444,3.444,0,0,1,1.284-1.284,4.513,4.513,0,0,1,4.006,0,3.449,3.449,0,0,1,1.283,1.284,3.951,3.951,0,0,1,.469,2,3.78,3.78,0,0,1-.688,2.347,3.2,3.2,0,0,1-1.628,1.19,4.451,4.451,0,0,0,2.567,1.6,12.685,12.685,0,0,0,3.505.5,7.783,7.783,0,0,0,4.413-1.314,7.651,7.651,0,0,0,2.911-3.881,16.873,16.873,0,0,0,.939-5.822,15.834,15.834,0,0,0-1.033-6.041,7.463,7.463,0,0,0-2.974-3.756,7.943,7.943,0,0,0-4.256-1.22,8.21,8.21,0,0,0-3.756,1.252l-2.754,1.377V479.7l12.395-16.526H212.929V480.32a6.093,6.093,0,0,0,.939,3.506,3.245,3.245,0,0,0,2.88,1.377,4.824,4.824,0,0,0,2.879-1,10.175,10.175,0,0,0,2.378-2.44.924.924,0,0,1,.313-.408.625.625,0,0,1,.407-.156,1.462,1.462,0,0,1,.814.345,1.7,1.7,0,0,1,.438,1.158,8,8,0,0,1-.157.877,8.287,8.287,0,0,1-2.942,3.63,7.292,7.292,0,0,1-4.13,1.252q-5.573,0-7.7-2.191a8.176,8.176,0,0,1-2.128-5.947V463.169h-8.765v-3.193h8.765v-7.26l-2-2v-1.626h5.821l2.191,1.126v9.766l22.661-.062,2.254,2.253-13.9,13.9a9.319,9.319,0,0,1,2.629-.626,11.353,11.353,0,0,1,5.07,1.44,10.475,10.475,0,0,1,4.381,3.88,13.915,13.915,0,0,1,1.972,4.7,19.909,19.909,0,0,1,.47,4.007,16.691,16.691,0,0,1-1.69,7.45,10.944,10.944,0,0,1-5.133,5.133A16.678,16.678,0,0,1,224.2,503.733Z" transform="translate(0 0)" fill="#2c7df7"/></g></svg>